<svg>
  <!-- search-icon -->
  <symbol id="search-icon" width="20" height="20" viewBox="0 0 24 24" xmlns="http://www.w3.org/2000/svg">
    <path d="M21.2929 22.7071C21.6834 23.0976 22.3166 23.0976 22.7071 22.7071C23.0976 22.3166 23.0976 21.6834 22.7071 21.2929L21.2929 22.7071ZM17 10C17 13.866 13.866 17 10 17V19C14.9706 19 19 14.9706 19 10H17ZM10 17C6.13401 17 3 13.866 3 10H1C1 14.9706 5.02944 19 10 19V17ZM3 10C3 6.13401 6.13401 3 10 3V1C5.02944 1 1 5.02944 1 10H3ZM10 3C13.866 3 17 6.13401 17 10H19C19 5.02944 14.9706 1 10 1V3ZM14.7929 16.2071L21.2929 22.7071L22.7071 21.2929L16.2071 14.7929L14.7929 16.2071Z"/>
  </symbol>
  <!-- delete-icon -->
  <symbol id="delete-icon" version="1.1" xmlns="http://www.w3.org/2000/svg" xmlns:xlink="http://www.w3.org/1999/xlink" width="18" height="18" viewBox="0 0 100 100" enable-background="new 0 0 100 100" xml:space="preserve">
    <g>
	    <path d="M65.206,36.688c-0.781-0.781-2.047-0.781-2.828,0l-9.899,9.899l-9.9-9.899c-0.781-0.781-2.047-0.781-2.828,0
		c-0.781,0.781-0.781,2.047,0,2.828l9.9,9.899l-9.9,9.899c-0.781,0.781-0.781,2.047,0,2.828c0.391,0.391,0.902,0.586,1.414,0.586
		s1.023-0.195,1.414-0.586l9.9-9.899l9.899,9.899c0.391,0.391,0.902,0.586,1.414,0.586s1.023-0.195,1.414-0.586
		c0.781-0.781,0.781-2.047,0-2.828l-9.899-9.899l9.899-9.899C65.987,38.735,65.987,37.468,65.206,36.688z"/>
	    <path d="M76.18,25.8C69.861,19.481,61.459,16,52.522,16S35.185,19.48,28.865,25.8c-13.045,13.045-13.045,34.271,0,47.315
		c6.318,6.319,14.721,9.8,23.657,9.8c8.938,0,17.34-3.48,23.659-9.8c6.319-6.318,9.799-14.721,9.799-23.658
		C85.979,40.521,82.499,32.119,76.18,25.8z M73.354,70.287c-5.564,5.563-12.962,8.628-20.831,8.628
		c-7.868,0-15.266-3.064-20.829-8.628c-11.485-11.485-11.485-30.174,0-41.659C37.258,23.064,44.654,20,52.522,20
		s15.266,3.064,20.829,8.627s8.628,12.961,8.629,20.83C81.98,57.326,78.917,64.724,73.354,70.287z"/>
    </g>
  </symbol>
</svg>